<?xml version="1.0" encoding="UTF-8" standalone="no"?>
<!-- Created with Inkscape (http://www.inkscape.org/) -->

<svg
   xmlns:dc="http://purl.org/dc/elements/1.1/"
   xmlns:cc="http://creativecommons.org/ns#"
   xmlns:rdf="http://www.w3.org/1999/02/22-rdf-syntax-ns#"
   xmlns:svg="http://www.w3.org/2000/svg"
   xmlns="http://www.w3.org/2000/svg"
   xmlns:sodipodi="http://sodipodi.sourceforge.net/DTD/sodipodi-0.dtd"
   xmlns:inkscape="http://www.inkscape.org/namespaces/inkscape"
   width="35.196198mm"
   height="44.079582mm"
   viewBox="0 0 35.196198 44.079582"
   version="1.1"
   id="svg949"
   inkscape:version="0.92.4 (5da689c313, 2019-01-14)"
   sodipodi:docname="绘图.svg">
  <defs
     id="defs943" />
  <sodipodi:namedview
     id="base"
     pagecolor="#000000"
     bordercolor="#666666"
     borderopacity="1.0"
     inkscape:pageopacity="0"
     inkscape:pageshadow="2"
     inkscape:zoom="0.35"
     inkscape:cx="-10.630365"
     inkscape:cy="-30.985715"
     inkscape:document-units="mm"
     inkscape:current-layer="layer1"
     showgrid="false"
     inkscape:pagecheckerboard="false"
     fit-margin-top="0"
     fit-margin-left="0"
     fit-margin-right="0"
     fit-margin-bottom="0"
     inkscape:window-width="2560"
     inkscape:window-height="1377"
     inkscape:window-x="-8"
     inkscape:window-y="-8"
     inkscape:window-maximized="1" />
  <metadata
     id="metadata946">
    <rdf:RDF>
      <cc:Work
         rdf:about="">
        <dc:format>image/svg+xml</dc:format>
        <dc:type
           rdf:resource="http://purl.org/dc/dcmitype/StillImage" />
        <dc:title></dc:title>
      </cc:Work>
    </rdf:RDF>
  </metadata>
  <g
     inkscape:label="Layer 1"
     inkscape:groupmode="layer"
     id="layer1"
     transform="translate(-108.64595,-96.555447)">
    <g
       id="g3131"
       transform="matrix(0.26458333,0,0,0.26458333,918.03943,-544.87392)">
      <path
         inkscape:connector-curvature="0"
         id="path3133"
         class="st0"
         d="m -2938,2435.8 c -7.5,-7.5 -17.5,-11.5 -27.8,-11.5 -10.7,0 -20.6,4 -27.8,11.5 -7.5,7.5 -11.5,17.5 -11.5,27.8 0,2.8 0.4,5.6 0.8,7.9 l -51.6,63.1 c -3.2,4 -3.6,9.5 -1.2,14.3 -3.6,5.9 -2.4,14.3 3.6,19.8 4,4 9.1,5.9 14.7,5.9 7.1,0 14.7,-3.6 21.4,-10.3 5.2,-5.2 11.5,-8.3 16.7,-8.3 2.8,0 5.2,0.8 7.1,2.8 2.4,2.4 3.2,5.6 2.4,9.5 -0.8,4.8 -3.6,9.5 -8.3,14.3 -2,2 -2,5.2 0,6.7 0.8,0.8 2,1.6 3.6,1.6 1.2,0 2.4,-0.4 3.6,-1.6 6.7,-6.7 10.7,-13.9 11.5,-21.4 0.4,-6.3 -1.6,-11.9 -5.6,-16.3 -4.4,-4.4 -10.3,-6.3 -17.1,-5.6 -6.8,0.7 -13.9,4.8 -20.2,11.1 -4.8,4.8 -9.9,7.5 -14.7,7.5 -3.2,0 -5.9,-1.2 -7.9,-3.2 -1.6,-1.6 -2.8,-4 -2.8,-5.9 4.4,2 9.9,1.2 13.5,-1.6 l 63.9,-52.4 c 12.7,2 25.4,-2.4 34.1,-11.1 7.5,-7.5 11.5,-17.5 11.5,-27.8 -0.4,-9.3 -4.7,-19.2 -11.9,-26.8 z m 1.6,28.2 c 0,7.9 -3.2,15.5 -8.7,21 -5.6,5.6 -13.1,8.7 -21,8.7 -7.9,0 -15.5,-3.2 -21,-8.7 -5.6,-5.6 -8.7,-13.1 -8.7,-21 0,-7.9 3.2,-15.5 8.7,-21 5.6,-5.6 13.1,-8.7 21,-8.7 7.9,0 15.5,3.2 21,8.7 5.5,5.5 8.7,13.1 8.7,21 z m -46.8,35.3 -59.1,48 c -1.2,0.8 -3.2,0.8 -4,-0.4 l -2,-2 c -1.2,-1.2 -1.2,-3.2 -0.4,-4 l 48,-58.7 c 2,3.6 4,6.3 6.7,9.1 3.3,3.6 6.8,6 10.8,8 z"
         style="fill:#ffffff" />
      <path
         inkscape:connector-curvature="0"
         id="path3135"
         class="st0"
         d="m -2955.8,2447.3 c -0.8,0.8 -1.6,2 -1.6,3.6 0,1.2 0.4,2.4 1.6,3.6 2.8,2.8 4,6.3 4,10.3 0,4 -1.6,7.9 -4,10.3 -0.8,0.8 -1.6,2 -1.6,3.6 0,1.2 0.4,2.4 1.6,3.6 0.8,0.8 2,1.6 3.6,1.6 1.2,0 2.4,-0.4 3.6,-1.6 4.4,-4.4 6.7,-10.7 6.7,-17.5 0,-6.7 -2.4,-12.7 -6.7,-17.5 -2.1,-1.6 -5.2,-1.6 -7.2,0 z"
         style="fill:#ffffff" />
    </g>
  </g>
</svg>
